<svg xmlns="http://www.w3.org/2000/svg" xmlns:xlink="http://www.w3.org/1999/xlink" version="1.1" width="701px" height="701px" viewBox="-0.5 -0.5 701 701"><path d="M312.577 83.747 C 264.358 90.218,216.118 111.826,176.517 144.692 C 125.747 186.827,91.995 249.190,82.835 317.787 C 80.928 332.070,80.928 367.762,82.835 382.045 C 95.009 473.212,149.205 550.070,229.728 590.360 C 268.176 609.598,306.285 618.530,349.916 618.530 C 376.024 618.530,390.744 616.796,414.758 610.892 C 462.498 599.155,504.159 575.478,539.819 539.819 C 575.065 504.572,598.420 463.794,610.442 416.511 C 616.613 392.240,618.521 376.526,618.526 349.916 C 618.534 306.299,609.603 268.185,590.360 229.728 C 550.508 150.081,473.185 94.997,385.198 83.573 C 367.741 81.307,330.089 81.397,312.577 83.747 M378.188 139.668 C 454.802 149.697,519.047 200.415,548.318 273.974 C 563.489 312.103,566.228 361.028,555.554 403.254 C 542.397 455.298,506.243 503.768,459.546 531.964 C 391.928 572.794,305.631 572.302,238.667 530.705 C 184.171 496.854,147.884 440.950,139.668 378.188 C 127.462 284.940,177.120 195.506,262.652 156.697 C 299.040 140.187,338.133 134.425,378.188 139.668 " stroke="none" fill="#000000" fill-rule="evenodd"></path></svg>